<?xml version="1.0" encoding="utf-8"?>
<!-- Generator: Adobe Illustrator 28.2.0, SVG Export Plug-In . SVG Version: 6.00 Build 0)  -->
<svg version="1.1" id="Layer_1" xmlns="http://www.w3.org/2000/svg" xmlns:xlink="http://www.w3.org/1999/xlink" x="0px" y="0px"
	 viewBox="0 0 2160 1024" style="enable-background:new 0 0 2160 1024;" xml:space="preserve">
<style type="text/css">
	.st0{fill:#656D73;}
	.st1{fill:#656E74;}
	.st2{fill:#4E585E;}
	.st3{fill:#2672F6;}
	.st4{fill:#E83C39;}
	.st5{fill:#E73C3A;}
	.st6{fill:#FDB32F;}
	.st7{fill:#269D4F;}
	.st8{fill:#2774F6;}
	.st9{fill:#259D4F;}
	.st10{fill:#028729;}
	.st11{fill:#E10906;}
	.st12{fill:#024FF4;}
</style>
<g>
	<g>
		<path class="st0" d="M1106.5,675.4c0,1.7,0.1,3.5-0.3,5.7c-0.5,2.8-0.6,5-0.7,7.3c0,0.5,0,0.9-0.4,1.8c-0.5,1.3-0.6,2.2-0.6,3.2
			c-4.6,16.6-16.5,26.2-31.3,33.1c-2.2,1.1-4.6,1.8-7.4,2.6c-1.1,0-1.6,0.2-2.2,0.4c0,0-0.4,0.1-1,0c-7.1,0.7-13.6,1.3-20,2.1
			c-0.7,0.1-1.3,1.2-1.9,1.8c-1.7,0-3.5,0.1-5.7-0.3c-6.1-0.9-11.7-1.3-17.2-1.8c-0.2,0-0.4,0-0.9-0.4c-1.3-0.5-2.2-0.5-3.1-0.6
			c-22.4-6-40.2-17.5-47.4-41c-1.3-4.2-1.5-8.7-2.4-14.3c10.8-1.6,20.8-3.1,31.2-4.7c0.4,2.6,0.5,5.1,1.1,7.4
			c2.9,11.6,9.8,19.6,20.7,24.6c14.5,6.6,29,5.1,43.1-0.2c5.2-2,9-7.4,13.8-11.7c0.5-0.8,0.6-1.1,0.7-1.5c0.3-1,0.6-2.1,1.3-3.6
			c3-6.4,2.1-13.7-1.6-17.4c-6.8-11.2-18.1-14.4-30.4-17.2c-5.4-1.2-10.3-1.9-15.2-2.6c-0.5,0-1,0-1.9-0.5c-7.7-2.9-15-5.2-22.3-7.6
			c-2.9-0.9-5.9-1.9-8.8-2.9c-14.9-8.1-24.3-20.4-24.9-37.5c-0.9-29.9,11.2-46.3,40.8-56c5-0.3,9.3-0.7,13.6-1.5
			c0.9-0.1,1.6-1.2,2.4-1.8c0.5-0.1,0.9-0.1,2,0.2c5.4,0.2,10.2,0,15-0.2c17.4,1.3,32.6,7.4,45,20.8c0.6,1,1,1.4,1.4,1.8
			c0,0-0.1,0-0.2,0.3c0.6,0.8,1.3,1.3,1.9,1.9c0,0-0.1,0-0.1,0.4c0.7,1.1,1.4,1.9,2.1,2.6c0,0-0.1,0-0.1,0.4
			c2.4,8.1,6.8,15.4,5.6,24.7c-3,0-5.8-0.2-8.6,0.1c-1.4,0.1-2.7,1.1-4,1.8c-0.7,0.1-1.3,0.1-2,0.2c-4,0.1-8.8,1.5-11.7-0.3
			c-2.6-1.6-3-6.7-4.5-10.2c-3.2-7.6-8.7-13-16.7-15.4c-11.9-3.5-23.9-3.6-35.7,0.8c-8.1,3.1-14.1,8.4-15.3,17.4
			c-1.4,10.6,1.8,19.5,11.1,25.5c9.7,6.3,21,7.9,32.5,10.6c4.7,1.6,9,2.7,13.2,4c7.1,2.1,14.2,4.3,21.3,6.4c0,0-0.1,0,0,0.3
			c1.4,0.8,2.7,1.2,4,1.7c0,0-0.1,0-0.1,0.3c0.7,0.4,1.3,0.6,2,0.8c2.9,2.4,5.8,4.9,8.9,8c0.6,1,1,1.4,1.4,1.9c0,0-0.1,0-0.2,0.3
			c0.6,0.8,1.3,1.3,1.9,1.8c0,0-0.1,0-0.1,0.4c0.7,1.1,1.4,1.9,2.1,2.7c0,0-0.1,0,0,0.3c0.4,0.8,0.7,1.2,1.1,1.7c0,0-0.1,0-0.1,0.3
			c1.3,6.6,2.7,12.9,4.1,19.2C1104.9,674.5,1105.9,674.9,1106.5,675.4z"/>
		<path class="st0" d="M1355.5,650.5c0.7,0,1.5-0.1,2.8,0.1c1.8-0.2,3-0.6,4.2-1c1.2-0.1,2.3-0.3,3.8-0.4c0.6-10.2,1.2-21-8.7-27.3
			c-12.1-7.7-25.6-8.3-38.3-1.6c-5.2,2.7-8.7,8.6-13,13.1c0.3,0.3,0.6,0.7,0.9,1c-1.7,0-3.3,0-5.5-0.5c-5.5-0.8-10.5-1.3-15.4-1.4
			c-1.2,0-2.5,0.9-3.8,1.3c-4.3,0.4-2.1-2.7-1.7-3.9c3.4-12.5,10-23,21.5-30.2c0.6-0.1,0.8-0.4,1-0.6c0,0,0.1,0.1,0.4,0.1
			c0.7-0.4,1.2-0.8,1.7-1.2c0,0,0.1,0.2,0.3,0.1c0.4-0.3,0.6-0.6,0.9-0.9c0,0,0,0.1,0.4,0.1c4.1-1.5,7.8-2.9,11.6-4.4
			c0.5-0.2,1-0.4,2.1-0.2c2.3-0.2,4.2-0.7,6-1.2c0.5-0.1,0.9-0.1,2,0.2c5.1,0.2,9.5-0.1,14-0.3c15.8,0.5,29.8,5.2,41,17.8
			c0.6,1.1,1,1.5,1.4,1.9c0,0-0.1,0-0.2,0.3c0.6,0.8,1.3,1.3,1.9,1.9c0,0-0.1,0,0,0.3c0.4,0.8,0.8,1.2,1.2,1.7c0,0-0.1,0-0.1,0.3
			c1.6,4.8,3.3,9.3,4.9,13.7c0.6,4.4,1.7,8.8,1.7,13.1c0.2,28.2,0.1,56.3,0.1,84.5c0,0.6-0.1,1.3-0.2,2.2c-9.1,0-18,0-27.5,0
			c0-5,0-10.2,0-16.7c-1.7,1.8-2.5,2.7-3.3,3.6c-11.3,12.8-25.9,17.3-42.5,16.8c-10.7-0.3-20.9-2.5-29.4-9.3
			c-12.8-10.3-15.8-24.4-13.5-39.5c2.9-19.6,12.5-27.8,35.6-31.3c2.6,0,4.6-0.4,6.6-0.7c1-0.2,2-0.4,3.6-0.3
			c10.8,0.1,21-0.3,31.2-0.6C1355,651.1,1355.3,650.7,1355.5,650.5 M1348.5,707.4c0,0-0.1,0,0.6-0.1c0.5-0.4,1-0.7,1.9-1.6
			c3.7-3.4,7.3-6.9,11.7-10.6c0.2-0.6,0.5-1.3,0.7-1.8c0,0-0.1-0.1,0.3-0.1c0.1-0.1,0.2-0.1,0.4-0.2c-0.2-0.2-0.3-0.4-0.4-1.3
			c1-3.4,2-6.9,3.3-10.5c0.1-0.1,0.2-0.3,0.2-0.3c-0.1-0.2-0.3-0.3-0.6-1.4c0-3.6,0-7.1,0-11c-6.3,0.3-12.2,0.5-18.6,0.2
			c-2-0.1-4-0.5-5.9-0.3c-2.2,0.3-4.3,1.2-7.1,2c-0.5,0-0.9-0.1-1.9-0.7c-1.8,0.5-3.6,1-6.1,1.7c-0.5,0-0.9,0-1.7-0.6
			c-0.7,0.3-1.3,0.6-2.4,1.5c-12.6,4-17.2,9.9-16.2,21.3c0.6,7.2,5.2,11.5,11.2,15.3c0.3,0.2,0.6,0.3,1.4,0.4c0,0,0.4,0.1,0.8,0.7
			c4.7,0.8,9.4,1.6,14.1,2.2c0.7,0.1,1.6-1.1,3.2-1.9c2.1-0.4,4.1-0.7,6.5-0.5c0.6-0.4,1.2-0.9,2.3-1.6c0.5-0.2,1-0.4,1.8-0.3
			C1348.1,707.7,1348.3,707.5,1348.5,707.4z"/>
		<path class="st0" d="M1154.6,669.6c1.4,13.8,6.2,25.9,18.5,33.6c15.1,9.4,44.8,9.1,55.7-17.5c8.8,1.9,17.7,3.8,27.1,5.8
			c-4.6,12.4-11.7,22.1-22.2,29.6c-0.6,0.2-0.8,0.4-0.9,0.7c0,0-0.2-0.1-0.4-0.1c-0.4,0.3-0.6,0.6-0.8,1c-0.4,0.3-0.8,0.6-1.8,0.9
			c-0.8,0.4-1,0.7-1.2,1c0,0,0-0.1-0.3,0c-0.8,0.4-1.2,0.7-1.7,1.1c0,0,0-0.1-0.3-0.1c-0.8,0.4-1.2,0.7-1.7,1.1c0,0,0-0.1-0.4-0.1
			c-1.2,0-2.1-0.1-2.8,0.2c-13.4,5.3-27.2,5.8-41.3,3.8c-2.1-0.3-4.3-0.1-6.5-0.1c-20.5-5.2-34.3-18.2-42.7-37.8
			c0.3-1.1,0.6-1.6,0.5-2c-6.8-19.2-6.8-38.3,0.1-57.5c0.4-1.1,0.1-2.4,0.1-3.6c6.1-14.4,16.3-24.9,30.7-31.7
			c0.7-0.1,0.9-0.3,1.2-0.5c0,0,0,0.1,0.4,0.1c4.2-1,8-2.2,11.8-2.9c5.9-1.1,11.9-2,17.8-3c0.5,0,0.9-0.1,1.8,0.4
			c5,0.9,9.6,1.3,14.2,1.7c22.9,6.1,37.3,21.1,44.7,43.8c0.6,4.4,1.4,8.2,2.3,12.1c0,0,0.1,0.4,0.1,1.1c0,4-0.4,7.4,0,10.7
			c0.6,5-1,6.5-6.2,6.4c-30.2-0.3-60.4-0.2-90.7,0C1158,667.5,1156.3,668.9,1154.6,669.6 M1227.6,649.5c-1.3-18.5-14.3-32-32.2-33.3
			c-22.1-1.7-39.7,13.4-39.3,34.9c0.6,0.1,1.3,0.4,1.9,0.4c22,0,44,0,65.9,0C1225.2,651.4,1226.3,650.7,1227.6,649.5z"/>
		<path class="st1" d="M1760,643.5c-4-18.4-15-26.9-33.9-26.1c-3.8-1.7-11.3,0.9-13.5,4.2c0,0-0.2,0.1-0.6,0.1c-0.7,0.3-1,0.7-1.3,1
			s-0.6,0.6-1.6,0.9c-1.2,0.7-1.8,1.4-2.4,2.1c-0.8,0.9-1.5,1.7-2.9,2.7c-1.1,1.1-1.6,2.1-2.1,3.1c0,0-0.1-0.1-0.4,0
			c-0.7,1.1-1.2,2.1-1.6,3.1c0,0,0-0.1-0.3,0.1c-0.4,0.8-0.6,1.4-0.8,2c0,0,0,0.4-0.4,0.7c-1.8,5.3-4.4,10.2-4.5,15.2
			c-0.4,23.1-0.3,46.3-0.1,69.4c0,4.5-1.4,5.8-5.7,5.5c-4.1-0.3-8.3-0.4-12.5,0c-4.8,0.5-6.1-1.3-6.1-6.1
			c0.2-50.8,0.1-101.5,0.1-152.3c0-2.3-0.6-4.6-0.5-6.8c3.3-0.9,7.9-3.3,8.8-2.3c3,3.4,5.4,0.7,8,0.4s5.2-0.7,7.9-0.7
			c0.3,2.5,0.8,4.6,0.8,6.8c0.1,14.4,0,28.8,0.1,43.2c0,1.5,0.3,2.9,0.5,4.4c0.8-0.2,1.7-0.5,2.5-0.7c0,0,0,0,0.4,0
			c0.8-1,1.2-2,1.6-3c0,0,0,0.1,0.4,0c0.7-0.8,1.1-1.5,1.4-2.2c0,0,0.1,0.1,0.3,0.1c0.4-0.4,0.6-0.7,0.7-1.1c0,0,0,0.1,0.3,0.1
			c0.4-0.4,0.6-0.7,0.7-1.1c0,0,0.1,0.1,0.3,0.1c0.4-0.4,0.6-0.7,0.7-1.1c0,0,0.1,0.1,0.3,0.1c0.4-0.4,0.6-0.7,0.7-1.1
			c0,0-0.1,0.1,0.3,0.1c1.2-1,2-2,2.9-3c0,0,0,0.1,0.3,0.1c0.7-0.4,1.2-0.9,1.6-1.3c0,0,0,0.1,0.3,0.2c16.6-8.3,33.2-8.9,50.2-2.2
			c0.4,0.2,1.1-0.4,1.7-0.5c14.5,6.7,21.6,18.9,25,33.8c0.5,2.1,0.7,4.2,0.7,7.1c-0.5,1.7-0.7,2.7-0.7,3.7c0,29.1,0,58.2,0,87.4
			c-8.4,0-16.7,0.1-25.5-0.4c-0.4-26.9-0.4-53.4-0.5-79.8C1761.5,647.3,1760.5,645.4,1760,643.5z"/>
		<path class="st0" d="M1645.5,686.4c-2.5,13-9.9,23-20,31.9c-1.4,0.9-2.2,1.6-2.9,2.3c0,0.3-0.2,0.6-1.1,0.7
			c-1.7,0.8-2.7,1.6-3.8,2.4c0,0-0.1-0.1-0.3-0.1c-0.4,0.3-0.6,0.6-0.9,0.9c0,0,0-0.1-0.3-0.1c-1.4,0.7-2.6,1.4-3.7,2.1
			c0,0,0-0.1-0.4-0.1c-5,1.2-9.5,2.5-14.2,3.6c-3.8,0.9-7.6,1.5-11.5,2.3c-1.4,0-2.8,0.1-4.7-0.3c-3.8-0.5-7-0.6-10.3-0.7
			c-29.3-2.9-50.7-23.3-56.7-54.8c0.4-2.8,0.9-5,0.6-7.1c-2.1-11.2,0.1-22,3.2-32.7c1-3.5,1.9-6.9,2.9-10.4c0,0,0,0.1,0.3-0.1
			c0.4-0.7,0.6-1.3,0.8-1.9c0,0,0,0.1,0.4,0c1.1-1.7,1.9-3.4,2.6-5c0,0,0,0.1,0.4,0c0.7-0.8,1-1.5,1.4-2.3c0,0,0,0.2,0.2,0.1
			c0.3-0.1,0.5-0.1,0.6-0.2c-0.2-0.2-0.3-0.4-0.5-0.6c9-12.4,21-20.5,35.9-23.2c18.8-3.4,37.7-3.7,54.9,7.1
			c13.7,8.6,22.6,20.5,26.5,36.6c-10,1.6-19.7,3.2-29.7,4.8c-2.3-7.7-6-14.4-12.4-20.1c-1.2-1.1-2.3-1.6-3.3-2.1c0,0,0.1,0,0-0.3
			c-0.7-0.4-1.3-0.6-1.9-0.8c0,0,0.1,0,0-0.3c-7.1-5.1-14.7-4.1-22.4-3c-0.2,0-0.3,0.6-0.4,0.9c-0.2,0.1-0.4,0.2-1,0
			c-1.3,0.1-2.1,0.4-2.9,0.8c-23.5,7.9-29.6,30.5-27.8,51.1c1.2,13,5.8,24.2,16.7,32.1c7.3,5.2,15.8,8,24.5,8.1
			c5.3,0.1,10.6-2.9,16.4-4.4c1.1-0.4,1.6-0.9,2.1-1.4c0,0,0,0.1,0.4,0.1c1.4-1.1,2.5-2.2,3.6-3.2c0.4-0.5,0.9-1.1,1.9-1.7
			c1.1-1.1,1.6-2.1,2.1-3.1c0-0.3,0.1-0.6,0.8-1c0.7-0.8,0.9-1.4,1.1-2c0,0,0,0.1,0.3-0.1c0.4-0.7,0.6-1.3,0.7-1.9
			c0,0,0,0.1,0.3-0.1c1.4-2.2,2.6-4.3,3.8-6.5c2.1,0.2,4.4,0.4,6.6,0.7C1631.3,684.4,1638.4,685.4,1645.5,686.4z"/>
		<path class="st1" d="M1423.6,610.5c0-1.4-0.1-2.8,0.2-4.8c0.2-1.8,0-3-0.2-4.2c-0.1-0.8-0.1-1.5,0.2-2.9c1.8-1.1,3.3-2,4.7-2.1
			c3.9-0.2,7.9-0.1,11.9-0.1c11.1,0,11.8,0.9,9.6,12.1c-0.4,1.9-0.5,3.9-0.4,5.9c0,0.7,1.1,1.3,1.7,2c0.9-1,2-1.8,2.6-2.9
			c5.5-10,13-17.9,24.5-20.1c6.2-1.2,12.8-0.7,19.6-0.4c0.4,4.7,0.3,8.8,0.4,12.9c0.2,4.2,0.6,8.4,0.9,12.5c0,0.8,0.1,1.5-0.4,2.6
			c-3.2,0.7-5.9,1-8.5,1.3c-2.7,0-5.4,0.1-8.9-0.2c-4.2,0.3-7.7,0.9-11.1,1.5c0,0,0-0.1-0.3-0.1c-0.8,0.4-1.2,0.7-1.7,1.1
			c0,0,0-0.1-0.3-0.1c-0.8,0.4-1.2,0.7-1.7,1c0,0,0-0.1-0.3-0.1c-0.8,0.4-1.2,0.8-1.7,1.2c-2.4,2.4-4.8,4.8-7.7,7.5
			c-0.8,1-1,1.6-1.3,2.3c0,0,0-0.1-0.3,0.1c-0.4,0.7-0.6,1.3-0.7,1.9c0,0,0-0.1-0.3,0.1c-0.8,1.8-1.2,3.4-1.7,5c0,0,0,0.4-0.3,0.9
			c-0.8,4.2-1.6,8-1.7,11.7c-0.1,20.1,0,40.3-0.1,60.4c-0.1,13.8,1.9,11.7-11.9,11.8c-4.4,0-10.8,1.4-12.8-0.9
			c-2.4-2.7-1-8.7-1.2-13.3c-0.3-5.2-0.6-10.4-0.9-15.7c0-0.8-0.1-1.5,0.2-3c0.5-6.8,0.7-12.8,0.7-18.9c0-3.4-0.6-6.7-0.9-10.1
			c-0.1-1.1-0.1-2.2,0.2-4c0.5-17.2,0.6-33.8,0.6-50.3C1424.5,611.6,1423.9,611,1423.6,610.5z"/>
		<path class="st0" d="M1668.6,562.3c0.3,2.3,0.9,4.6,0.9,6.8c0.1,50.8,0.1,101.5-0.1,152.3c0,4.8,1.2,6.5,6.1,6.1
			c4.1-0.4,8.3-0.4,12.5,0c4.3,0.4,5.7-0.9,5.7-5.5c-0.2-23.1-0.4-46.3,0.1-69.4c0.1-5,2.7-9.9,4.5-15c-0.4,8.1-1.7,16.3-1.8,24.5
			c-0.3,20.5-0.1,40.9-0.1,61.4c0,1.8,0,3.6,0,5.7c-9.6,0-18.9,0-28.8,0c0-55.9,0-111.9,0.3-168.2
			C1668.3,561.3,1668.5,561.8,1668.6,562.3z"/>
		<path class="st2" d="M1423.6,698.9c0.4,4.8,0.7,10,1,15.2c0.3,4.6-1.1,10.6,1.2,13.3c2,2.3,8.4,1,12.8,0.9
			c13.8-0.1,11.8,2,11.9-11.8c0.1-20.1,0-40.3,0.1-60.4c0-3.8,0.9-7.5,1.6-11.5c0.3,28.1,0.3,56.5,0.3,85.3c-9.7,0-19.1,0-29,0
			C1423.5,719.8,1423.5,709.6,1423.6,698.9z"/>
		<path class="st2" d="M1155.1,669.5c1.3-0.6,3-2,4.7-2c30.2-0.1,60.4-0.2,90.7,0c5.2,0,6.8-1.4,6.2-6.4c-0.4-3.3-0.1-6.6,0-10.4
			c0.7,5.7,1.4,11.8,2.1,18.7C1223.7,669.4,1189.6,669.4,1155.1,669.5z"/>
		<path class="st2" d="M1131.5,629.8c0.1,0.9,0.4,2.2,0,3.3c-6.9,19.2-6.9,38.3-0.1,57.5c0.1,0.4-0.1,1-0.5,1.7
			C1122.9,671.5,1122.6,650.8,1131.5,629.8z"/>
		<path class="st2" d="M1788,729.2c-0.4-29-0.4-58.1-0.4-87.2c0-1,0.2-2,0.6-3.2C1788.4,668.7,1788.4,698.9,1788,729.2z"/>
		<path class="st2" d="M1760,643.9c0.5,1.4,1.5,3.3,1.5,5.2c0.1,26.4,0.1,52.8,0,79.7c-0.4-1.1-1.1-2.8-1.1-4.4
			c-0.1-24.6-0.1-49.1-0.1-73.7C1760.4,648.7,1760.2,646.6,1760,643.9z"/>
		<path class="st2" d="M1521.2,626.6c-0.7,3.2-1.6,6.7-2.6,10.2c-3,10.7-5.3,21.5-3.2,32.7c0.4,2.1-0.1,4.3-0.5,6.7
			C1511.9,659.2,1513.2,642.6,1521.2,626.6z"/>
		<path class="st2" d="M1645.6,686c-7.2-0.6-14.2-1.6-21.3-2.5c-2.2-0.3-4.5-0.5-6.6-0.7c-1.2,2.2-2.3,4.3-3.8,6.5
			c0.5-2.5,1.3-5.2,2.2-8.3c9.7,1.3,19.5,2.5,29.3,3.8C1645.4,684.8,1645.5,685.3,1645.6,686z"/>
		<path class="st2" d="M1355.1,650.4c0.1,0.3-0.1,0.7-0.4,0.7c-10.2,0.3-20.4,0.6-30.9,0.6C1334,651.1,1344.4,650.7,1355.1,650.4z"
			/>
		<path class="st2" d="M1423.6,610.9c0.3,0.1,0.9,0.7,0.9,1.2c-0.1,16.6-0.2,33.1-0.6,49.9C1423.6,645.4,1423.6,628.4,1423.6,610.9z
			"/>
		<path class="st2" d="M1106.5,675c-0.6-0.1-1.6-0.4-1.8-1c-1.5-6.3-2.8-12.6-4.1-19.3C1102.6,661,1104.6,667.8,1106.5,675z"/>
		<path class="st2" d="M1423.6,666.9c0.4,2.9,0.9,6.3,0.9,9.6c0.1,6.1-0.2,12.2-0.6,18.5C1423.6,686.1,1423.6,676.7,1423.6,666.9z"
			/>
		<path class="st2" d="M1074.3,668.6c3.6,3.2,4.4,10.5,1.6,16.6C1075.2,680,1074.8,674.5,1074.3,668.6z"/>
		<path class="st2" d="M1029,648.4c4.5,0.6,9.4,1.3,14.5,2.4C1038.8,650.3,1034.1,649.4,1029,648.4z"/>
		<path class="st2" d="M1105.6,688c0-1.9,0-4.2,0.5-6.5C1106.2,683.5,1105.9,685.6,1105.6,688z"/>
		<path class="st2" d="M1606.2,699.3c-0.8,0.9-1.9,2-3.3,3.1C1603.6,701.4,1604.8,700.4,1606.2,699.3z"/>
		<path class="st2" d="M1362.2,649.5c-0.8,0.5-2.1,0.9-3.5,1.1C1359.6,650,1360.7,649.7,1362.2,649.5z"/>
		<path class="st2" d="M1319.5,651.8c-1.5,0.5-3.5,0.9-5.7,0.9C1315.4,652.2,1317.3,651.9,1319.5,651.8z"/>
		<path class="st2" d="M1104.5,693.1c0-0.6,0-1.6,0.4-2.6C1105,691.3,1104.8,692,1104.5,693.1z"/>
		<path class="st2" d="M1099.6,652.1c-0.6-0.5-1.3-1.2-2-2.4C1098.3,650.1,1098.9,651,1099.6,652.1z"/>
		<path class="st2" d="M1610.3,694.5c-0.3,0.8-0.8,1.8-1.6,2.8C1608.9,696.5,1609.5,695.6,1610.3,694.5z"/>
		<path class="st2" d="M1097.6,649.1c-0.6-0.2-1.2-0.7-1.8-1.6C1096.4,647.7,1096.9,648.2,1097.6,649.1z"/>
		<path class="st2" d="M1602.2,702.4c-0.3,0.5-0.8,1-1.5,1.3C1601,703.1,1601.5,702.8,1602.2,702.4z"/>
		<path class="st2" d="M1613.3,689.5c0.1,0.4-0.1,1-0.5,1.7C1612.7,690.8,1612.9,690.3,1613.3,689.5z"/>
		<path class="st2" d="M1612.3,691.5c0,0.4-0.2,1-0.7,1.7C1611.5,692.8,1611.8,692.3,1612.3,691.5z"/>
		<path class="st2" d="M1100.7,654.1c-0.3-0.2-0.7-0.6-1-1.4C1099.9,652.8,1100.3,653.3,1100.7,654.1z"/>
		<path class="st2" d="M1074.2,689.3c0.1,0.2,0,0.5-0.4,1C1073.8,690.1,1073.9,689.7,1074.2,689.3z"/>
		<path class="st2" d="M1348.2,669c-3.7,0.6-7.7,1-12.2,1.3c1.7-0.6,3.8-1.5,6-1.8C1344,668.2,1346,668.6,1348.2,669z"/>
		<path class="st2" d="M1333.3,670.1c-1.5,0.6-3.2,0.9-5.3,1.2C1329.4,670.8,1331.2,670.3,1333.3,670.1z"/>
		<path class="st2" d="M1325.4,671.2c-0.3,0.4-0.8,0.6-1.8,0.7C1323.9,671.5,1324.5,671.2,1325.4,671.2z"/>
		<path class="st2" d="M1362.3,695.3c-0.1-0.5,0.2-1.1,0.8-1.9C1363.2,693.9,1362.9,694.5,1362.3,695.3z"/>
		<path class="st2" d="M1363.5,693.3c-0.2,0-0.1-0.4,0-0.6c0.3,0,0.4,0.2,0.6,0.4C1363.9,693.1,1363.8,693.2,1363.5,693.3z"/>
		<path class="st2" d="M1366.8,681.3c-0.2,0.1-0.2-0.4-0.2-0.6c0.2-0.1,0.4,0.1,0.5,0.3C1367.2,681,1367,681.1,1366.8,681.3z"/>
		<path class="st2" d="M1155.8,650.7c23.4-0.3,47.1-0.3,71.2-0.4c-0.7,0.4-1.9,1.1-3.1,1.1c-22,0.1-44,0-65.9,0
			C1157.4,651.4,1156.7,651.2,1155.8,650.7z"/>
	</g>
	<g>
		<path class="st3" d="M1569,396.4c-19.6,49.4-39.2,98.8-58.7,148.2c-6.8,17.3-15.8,32.6-33.2,41.3c-3.4,1.7-7,3-11,4.6
			c-0.6,0.1-0.9,0-0.7-0.4c0.4-4.1,0.7-7.9,1.1-12.6c-9.5,0-18.4,0-27.3-0.4c0-4.3,0-8.3,0-11.2c7.7-0.7,14.3-0.9,20.8-2
			c2.7-0.5,5-3.1,7.5-4.7c3-3.7,6.5-7.2,8.9-11.2c4.8-8.1,6.8-15.9,2.4-26c-18.2-41.4-35.2-83.3-52.7-125c-0.3-0.7-0.6-1.5-1.3-3.3
			c3.3,0,6,0,8.7,0c6.8-0.1,13.7,0,20.5-0.3c3.6-0.2,5.3,1.1,6.6,4.4c11.8,30.8,23.8,61.5,35.8,92.2c0.6,1.5,1.2,3,2.4,5.9
			c5.5-14.2,10.5-27.1,15.4-40c7.6-20.2,15-40.4,22.5-60.6c0.2-0.6,0.8-1.1,1.6-1.5c0.4,0.1,0.9,0.1,0.9,0.1l0.3-0.4
			c8.4-0.1,16.8-0.1,25.8,0.1C1566.7,394.9,1567.8,395.6,1569,396.4z"/>
		<path class="st4" d="M1146.1,395.5c0,6.1,0,12.3,0,19.7c1.5-1.8,2.3-2.6,2.9-3.6c7.1-10.5,16.6-17.9,29.3-19.4
			c19-2.2,37.7-1.6,51.7,14.5c9,10.3,11.6,22.8,11.8,36.7c-0.8,18.5-1.3,36.2-1.6,54c-0.2,9.5-0.2,19,0,28.4
			c0.1,3.5-1.8,4.5-4.5,4.6c-5.9,0.2-11.9-0.1-17.8,0.3c-4.4,0.3-6-0.8-5.9-5.7c0.3-22.9,0.2-45.9,0-68.8c0-5.4-0.6-10.9-1.8-16.2
			c-0.7-3.1-3.4-5.7-5.1-8.5c0,0,0,0,0-0.3c-0.7-1.1-1.4-1.9-2-2.6c0,0,0.1,0,0-0.3c-0.4-0.7-0.8-1.2-1.2-1.7c0,0,0.2-0.1,0.1-0.2
			c-0.4-0.4-0.7-0.6-1-0.8c0,0,0.2,0.1,0-0.2c-0.7-0.4-1.3-0.7-1.9-0.9c0,0,0.1,0,0-0.3c-1-0.8-2-1.2-3-1.7c0,0,0.1,0-0.1-0.3
			c-0.7-0.4-1.3-0.6-1.9-0.8c0,0,0.1,0-0.1-0.3c-3.4-2.8-6.8-4.1-10.8-2.1c-2.3,0.1-4.6,0.5-6.9,0.3c-9.7-0.6-16,4.9-22,11.8
			c-2.1,2.7-4.5,5.4-5,8.3c-1.5,8.6-2.8,17.3-3,26.1c-0.4,19.8-0.1,39.6-0.2,59.4c0,1.7-0.2,3.5-0.3,5.1c-9.9,0-19.1,0-28.3,0
			c-0.2-0.9-0.4-1.3-0.4-1.8c0-43.1,0-86.2-0.1-129.3c0-3,1.3-3.6,4-3.6C1129.4,395.6,1137.7,395.5,1146.1,395.5z"/>
		<path class="st5" d="M849.1,422.9c-10.9,7-14.9,17.5-15.6,30.5c-0.8,2.3-1.3,4.1-1.3,5.8c-0.1,21.6,0,43.3,0,64.9c0,1.9,0,3.9,0,6
			c-10,0-19.3,0-28.7,0c0-45,0-89.5,0-134.6c7.1,0,13.9,0.1,20.6-0.1c1.7,0,3.3-0.8,5-1.2c3.1-1.5,2.8,0.9,2.9,2.7
			c0.1,5.6,0,11.2,0,14.9c4.1-3.5,8.9-8,14.2-11.8c7.5-5.4,15.5-9.3,25.3-7.7c2.1,0.3,4.3-0.5,6.4-0.3c3.8,0.2,7.6,0.7,11.3,1.2
			c3.5,0.5,7.2,0.7,10.5,1.8c8.8,3.1,15.3,9.2,20.2,17.3c0.7,1.7,1.5,2.9,2.3,4.1c0,0,0.1,0.3,0.1,0.9c3.5,12.1,4.1,23.9,4,35.9
			c-0.3,24.7-0.1,49.5-0.1,74.6c-1.3,1.1-2.6,2.3-4.1,2.5c-4.6,0.5-9.3,0.7-13.9,1c-3.1,0.1-6.1,0.1-9.6-0.4
			c-0.4-5.2-0.5-9.8-0.5-14.5c0-19.6,0-39.1-0.1-58.7c0-1.1-1-2.2-1.5-3.3c-0.2-2.4-0.4-4.7-0.3-7.7c0.3-1,0.4-1.3,0.4-1.7
			c-0.4,0.1-0.8,0.2-1.2,0.3c0,0-0.2-0.4,0.2-1c0.3-5.3-0.5-9.7-4.6-12.8c0,0,0.1-0.1,0.1-0.4c-0.7-1.1-1.4-1.9-2.1-2.6
			c-1.2-1.1-2.4-2.2-3.8-4c-1.2-1.1-2.2-1.5-3.2-2c0,0,0.1,0,0-0.3c-0.7-0.4-1.3-0.6-1.9-0.7c0,0,0.1,0,0-0.3
			c-6.1-4.3-12.9-4.5-19.5-3.2C856.5,418.9,852.9,421.2,849.1,422.9z"/>
		<path class="st6" d="M987.8,532.5c-6,0-11.5,0-17,0c-3.1,0-4.6-1.3-4.6-4.5c0.3-16,0.6-32,0.7-47.9c0.1-19,0.1-38,0.1-57
			c0-2.7-1.3-3.8-4.1-3.7c-4.9,0.2-9.9,0-15.6,0c0-8.4-0.2-15.7,0.2-22.9c0-1,2.7-2.5,4.2-2.6c4.9-0.3,9.9-0.1,14.8-0.1
			c0.5-9.3,0.6-17.6,1.5-25.8c2.7-23,18.3-36.8,41.4-36.6c7.5,0.1,15.1,1,23,1.6c0,9.6,0,18.4,0,27.4c-6.5-0.3-12.6-0.7-18.7-0.8
			c-6.7-0.1-12.4,3.5-13.8,9.9c-1.7,7.6-2.2,15.5-3.2,23.9c10.8,0,20.1,0.2,29.4-0.1c4.1-0.1,5.1,1.4,4.9,5.3
			c-0.3,5.6-0.2,11.3,0.1,17c0.1,3.1-0.9,4.1-4,4c-9.6-0.1-19.3-0.1-29.3-0.1c0,37.5,0,74.5,0,111.5
			C994.4,531.6,991.4,532,987.8,532.5z"/>
		<path class="st7" d="M1378.2,532.4c-11.8-1.8-20.8-7.9-26.7-18.7c-4.9-12.3-5.6-24.8-5.4-37.4c0.2-10.6,0.1-21.3,0-31.9
			c0-1.6-0.5-3.2-0.8-4.7c0-6.4,0-12.9,0-20c-1.2-0.1-2.8-0.2-4.9-0.8c-3-0.8-5.4-1.4-7.7-1.2c-4.2,0.4-6.3-0.9-5.6-5.4
			c0.3-1.8,0-3.6,0-5.4c0-10.2,0-10.1,10-10.3c2.7,0,5.3-0.7,8-1.1c0,0,0,0.2,0.3,0.1c0.8-1.5,1.6-3,1.6-4.4c0.2-5,0.1-9.9,0.1-14.9
			c0-5.1,0-10.1,0-14.2c3.7-1.3,6.3-2.2,9-3.2c0.8-0.1,1.5-0.1,3,0.2c4.5,0.5,8.3,0.7,12.1,0.6c3.1-0.1,4,1.1,4,4.1
			c-0.1,8.6-0.1,17.2,0,25.9c0,1.7,0.6,3.4,1,5.1c0,0,0,0,0.1,0.4c1.6,0.8,3.1,1.5,4.5,1.6c7.1,0.1,14.2,0.1,21.3,0.1
			c2.9,0,5.8,0,9,0c0,2.7-0.1,4.5,0,6.3c0.2,4.2,0.6,8.4,0.9,12.6c-0.1,2.1-0.3,4.2-0.4,7.1c-11.4,0-22.4,0-34.3,0.1
			c-1.3,1.2-2.1,2.4-2.1,3.5c-0.1,19.6-0.1,39.2,0,58.8c0,1.2,1.1,2.3,1.7,3.5c3.2,15.5,10.5,19.9,28,16.7c5.8-1.1,6.4-0.5,6,6.2
			c-0.5,4.5-1.1,8.3-0.6,12c0.7,5.2-1.9,6.7-6.3,7c-7.1,0.4-14.1,0.7-21.2,1.1C1381.4,531.6,1379.8,532.1,1378.2,532.4z"/>
		<path class="st8" d="M739.3,343.6c0-0.8-0.1-1.5,0.4-2.7c2.4-0.7,4.3-1.2,6.3-1.3c8.1-0.1,16.2-0.1,24.3-0.1c0,0-0.1,0.1-0.1,0.5
			c0,61.9,0,123.4,0,184.8c0,6.7,0,6.6-6.7,6.8c-6.7,0.1-13.5,0.5-20.2,0.8c-0.2,0-0.4,0.1-0.9-0.3c-1-2.7-2.1-5-2.1-7.3
			c-0.1-58.5-0.1-116.9-0.1-175.4C740.2,347.4,739.6,345.5,739.3,343.6z"/>
		<path class="st9" d="M1301.1,483.5c0.1,3.4,0.1,6.8-0.2,10.9c-0.2,4.9,0,9,0.2,13.1c0.1,1.1,0.1,2.2-0.2,4c-0.2,3.5,0,6.3,0.2,9
			c0.1,2.4,0.1,4.8-0.2,7.8c-2.1,1.5-3.9,2.3-5.7,3c-1,0.4-2,0.7-3,1c-6.7,0.1-13.4,0.1-20.6-0.4c-0.4-46.1-0.4-91.6-0.4-137.4
			c8.6,0,16.3,0.2,23.9-0.1c4-0.1,5.2,1.5,5.1,5.3c-0.2,8.7-0.1,17.3,0,26c0,1.9,0.6,3.8,0.9,5.7c0.1,1.7,0.1,3.5-0.2,5.9
			c-0.5,15.3-0.6,29.8-0.6,44.3C1300.3,482.3,1300.8,482.9,1301.1,483.5z"/>
		<path class="st9" d="M1066.2,532.3c-0.2,0.1-0.4,0.1-1.1-0.1c-3.5-0.5-6.4-0.8-9.4-1c0-45.6,0-90.9,0-136.6
			c7.5,0,14.8,0.3,22.1-0.1c4.5-0.2,5.5,1.3,5.5,5.6c-0.2,44.1-0.1,88.2-0.1,132.3c-0.5,0.1-0.9,0.1-2-0.2
			c-4.7-0.8-8.8-1.3-12.9-1.5C1067.6,530.6,1066.9,531.7,1066.2,532.3z"/>
		<path class="st9" d="M1276.6,369.3c-9.9-5.6-11.3-15.4-8.4-23.9c2.9-8.3,11.9-13.1,20.3-11.6c11.3,2.1,18.2,12.2,15.7,23
			c-2.7,11.4-13,17.2-24.5,13.8C1278.7,370.3,1277.8,369.9,1276.6,369.3z"/>
		<path class="st9" d="M1081.1,367.7c-8.1,5.7-19.9,5-25.5-2.4c-6-7.9-6.9-18.7,0.9-26.5c7.1-7.1,18-7.1,26.6,0.6
			c0.6,1.1,1,1.5,1.5,1.9c0,0-0.2,0-0.2,0.3c0.9,4.9,2.2,9.4,2.6,14c0.2,2.6-1.1,5.3-1.8,8c0,0,0-0.1-0.3-0.1
			C1083.4,364.9,1082.3,366.3,1081.1,367.7z"/>
		<path class="st10" d="M1083.6,532.3c-0.4-44-0.5-88.1-0.3-132.2c0-4.4-1-5.8-5.5-5.6c-7.3,0.4-14.6,0.1-22.1,0.1
			c0,45.8,0,91,0,136.6c3.1,0.2,6,0.4,9.2,0.9c-3.4,0.3-7,0.3-10.8,0.3c0-46.2,0-92.3,0-138.7c10.3,0,20,0,30,0.7
			c0.5,1.2,0.7,1.7,1,2.2c0,44,0.1,88,0,132C1085,529.7,1084.3,531,1083.6,532.3z"/>
		<path class="st3" d="M1439.6,594.4c-0.6-0.6-0.7-1.1-1.2-1.8c-0.3-4.8-0.4-9.5-0.1-14.6c0.8-0.8,1.3-1.1,1.7-1.5
			c8.9,0,17.8,0,27.3,0c-0.3,4.7-0.6,8.5-1.2,12.8c-0.8,1.1-1.4,1.5-1.9,2c-2.6,0.4-5.2,0.8-7.8,1.1c-2.6,0.3-5,3-8-0.4
			C1447.5,591.1,1442.9,593.6,1439.6,594.4z"/>
		<path class="st11" d="M1146,395c-8.2,0.4-16.5,0.5-24.9,0.4c-2.6,0-4,0.5-4,3.6c0.1,43.1,0.1,86.2,0.1,129.3
			c0,0.5,0.2,0.9,0.4,1.8c9.2,0,18.4,0,28.3,0c0.1-1.6,0.3-3.4,0.3-5.1c0-19.8-0.3-39.6,0.2-59.4c0.2-8.7,1.6-17.4,3-26.1
			c0.5-3,2.9-5.6,4.7-8.2c-6.7,11.4-6.1,24.1-6.3,36.5c-0.4,21.1-0.1,42.2-0.1,63.6c-10.5,0-20.8,0-31.3,0c0-45.5,0-91,0-136.9
			C1126.3,394.6,1136.1,394.6,1146,395z"/>
		<path class="st11" d="M1205.3,431.9c1.7,2.5,4.3,5.1,5,8.1c1.3,5.2,1.8,10.8,1.8,16.2c0.2,22.9,0.2,45.9,0,68.8
			c-0.1,4.8,1.5,5.9,5.9,5.7c5.9-0.4,11.9-0.1,17.8-0.3c2.7-0.1,4.5-1.1,4.5-4.6c-0.2-9.5-0.2-19,0-28.4c0.3-17.7,0.8-35.5,1.6-53.5
			c0.3,28.8,0.3,57.9,0.3,87.8c-10.8,0-20.6,0-31,0c0-1.1,0-2.9,0-4.6c0-23,0.1-45.9-0.1-68.9
			C1210.9,449.2,1209.9,440.3,1205.3,431.9z"/>
		<path class="st11" d="M828.7,394.2c-1.2,0.5-2.9,1.2-4.5,1.2c-6.8,0.1-13.6,0.1-20.6,0.1c0,45.1,0,89.7,0,134.6
			c9.4,0,18.7,0,28.7,0c0-2.1,0-4.1,0-6c0-21.6,0-43.3,0-64.9c0-1.8,0.5-3.5,1.2-5.4c0.2,14.8-0.1,29.8-0.2,44.7
			c-0.1,11,0,21.9,0,33.1c-10.4,0-20.5,0-30.9,0c0-45.6,0-91.1,0-137.4C811,394.1,819.6,394.1,828.7,394.2z"/>
		<path class="st12" d="M743.7,532.4c6.3-0.4,13-0.8,19.8-0.9c6.7-0.1,6.7,0,6.7-6.8c0-61.5,0-122.9,0-184.8c0.4,2,1.2,4.5,1.2,7
			c0,61.2-0.1,122.4-0.2,183.6c0,0.5-0.1,1-0.3,2C762,532.5,753.1,532.5,743.7,532.4z"/>
		<path class="st4" d="M926.2,527.5c0-24.7-0.2-49.5,0.1-74.2c0.1-12-0.5-23.8-4-35.7c5.1,7.3,5.7,16.1,5.8,24.8
			c0.3,28.1,0,56.3-0.6,84.8C926.7,527.5,926.4,527.5,926.2,527.5z"/>
		<path class="st10" d="M1301.1,431c-0.4-1.4-0.9-3.3-0.9-5.3c-0.1-8.7-0.2-17.3,0-26c0.1-3.8-1.1-5.4-5.1-5.3
			c-7.6,0.2-15.3,0.1-23.9,0.1c0,45.8,0,91.4,0,137.4c-0.4-0.8-1.1-2.1-1.1-3.4c-0.1-44.5-0.1-88.9-0.1-133.4c0-0.3,0.1-0.6,0.3-1.3
			c10,0,20,0,30.9,0C1301.2,406,1301.2,418.3,1301.1,431z"/>
		<path class="st12" d="M739.3,344c0.4,1.5,0.9,3.4,0.9,5.3c0,58.5,0,116.9,0.1,175.4c0,2.3,1.1,4.6,1.8,7.3c-4.1,1.1-3-2-3-4.1
			c0-24.8,0-49.6,0-74.5C739.1,417.1,739.2,380.8,739.3,344z"/>
		<path class="st10" d="M1377,488c-0.6-0.7-1.7-1.9-1.7-3.1c-0.1-19.6-0.1-39.2,0-58.8c0-1.1,0.8-2.3,1.6-3.5
			c0.3,4.7,0.1,9.5,0.1,14.3C1376.9,453.8,1377,470.6,1377,488z"/>
		<path class="st10" d="M1378.6,532.5c1.2-0.4,2.7-0.8,4.3-0.9c7.1-0.4,14.1-0.7,21.2-1.1c4.3-0.3,6.9-1.8,6.3-7
			c-0.5-3.7,0.1-7.5,0.5-11.6c0.7,5.9,1.2,12.1,1.7,18.8C1400.9,531.7,1390.2,535.1,1378.6,532.5z"/>
		<path class="st10" d="M1345.3,440c0.4,1.1,0.9,2.7,0.9,4.3c0.1,10.6,0.2,21.3,0,31.9c-0.3,12.6,0.5,25.1,5.3,37.1
			c-2.3-6.9-5.7-13.9-6-21C1344.6,475,1345.2,457.7,1345.3,440z"/>
		<path class="st10" d="M1355.7,358.6c-2.2,0.9-4.8,1.9-8.5,3.2c0,4.1,0,9.2,0,14.2s0.1,9.9-0.1,14.9c0,1.5-0.9,2.9-1.7,4.4
			c-0.1-3.4,0.3-6.8,0.4-10.3c0.1-8.5,0-16.9,0-25.4C1349,359.3,1352.2,359,1355.7,358.6z"/>
		<path class="st11" d="M896.5,454.9c0.6,0.7,1.6,1.8,1.6,2.9c0.1,19.6,0.1,39.1,0.1,58.7c0,4.6,0,9.3,0,14.4
			c-0.4-1-1.1-2.4-1.1-3.8C896.8,503.2,896.7,479.3,896.5,454.9z"/>
		<path class="st12" d="M1439.1,577.1c-0.4,0.7-0.9,1.1-1.6,1.4c-0.3-4.9-0.3-9.8-0.3-15c10.1-0.2,20.4,1.9,29.8-4.1
			c-2.1,1.5-4.5,4-7.2,4.5c-6.4,1.2-13,1.4-20.8,2C1439,568.8,1439,572.8,1439.1,577.1z"/>
		<path class="st10" d="M1344.7,395.3c-2.2,0.4-4.8,1.1-7.5,1.1c-10,0.1-10,0.1-10,10.3c0,1.8,0.2,3.7,0,5.4
			c-0.7,4.6,1.4,5.8,5.6,5.4c2.3-0.2,4.7,0.5,7.2,1.1c-4.4,0.4-9,0.4-13.6,0.4c0-8.6,0-16.1,0-23.7
			C1332.4,395.3,1338.4,395.3,1344.7,395.3z"/>
		<path class="st10" d="M1412.1,415c-0.4-3.7-0.7-8-0.9-12.2c-0.1-1.8,0-3.6,0-6.3c-3.2,0-6.1,0-9,0c-7.1,0-14.2,0.1-21.3-0.1
			c-1.5,0-2.9-0.8-4.5-1.6c4.9-0.1,10,0.3,15.1,0.4c6.8,0.1,13.5,0,20.8,0C1412.2,402,1412.2,408.3,1412.1,415z"/>
		<path class="st4" d="M849.5,422.8c3.4-1.5,7-3.9,11-4.7c6.6-1.3,13.4-1.1,19.5,3.2C869.9,418.4,859.8,418.2,849.5,422.8z"/>
		<path class="st10" d="M1376.2,394c-0.3-1.2-1-3-1-4.7c-0.1-8.6-0.1-17.2,0-25.9c0.1-3-0.9-4.2-4-4.1c-3.8,0.1-7.6-0.1-11.7-0.5
			c5.1-0.3,10.6-0.3,16.7-0.3C1376.2,370.4,1376.2,382,1376.2,394z"/>
		<path class="st10" d="M1301.1,483c-0.3-0.1-0.9-0.7-0.9-1.2c0-14.5,0.2-29.1,0.5-43.9C1301.1,452.5,1301.1,467.5,1301.1,483z"/>
		<path class="st10" d="M1085.5,363.4c0.4-2.5,1.7-5.2,1.5-7.8c-0.4-4.6-1.7-9.1-2.6-14.1C1089.9,348.2,1090,355.6,1085.5,363.4z"/>
		<path class="st12" d="M770.1,339c-7.9,0.4-16,0.4-24.1,0.5c-1.9,0-3.9,0.5-6.2,0.9c0.6-0.6,1.7-1.8,2.8-1.9
			C751.7,338.5,760.8,338.6,770.1,339z"/>
		<path class="st4" d="M891.1,432c4.1,2.7,4.9,7.1,4.7,12.2C894.1,440.5,892.7,436.4,891.1,432z"/>
		<path class="st11" d="M926.2,527.9c0.2-0.4,0.5-0.4,1.1-0.4c0.4,3-0.7,4.3-4,4.1c-4.7-0.3-9.4-0.1-14.6-0.2
			c4.2-0.4,8.8-0.5,13.4-1C923.5,530.3,924.8,529.1,926.2,527.9z"/>
		<path class="st11" d="M1183.7,419.2c3.6-2.1,7-0.8,10.4,2C1190.8,420.8,1187.4,420.1,1183.7,419.2z"/>
		<path class="st10" d="M1066.7,532.3c0.2-0.6,0.9-1.7,1.6-1.7c4.1,0.2,8.2,0.7,12.6,1.4C1076.5,532.4,1071.8,532.4,1066.7,532.3z"
			/>
		<path class="st10" d="M1292.7,532.4c0.6-0.4,1.6-0.6,2.5-1c1.8-0.8,3.5-1.6,5.6-2.6c0.9,2.7-0.3,4.1-3.3,3.8
			C1296,532.4,1294.6,532.5,1292.7,532.4z"/>
		<path class="st10" d="M1301.1,507c-0.2-3.7-0.4-7.8-0.3-12.2C1301.1,498.5,1301.1,502.5,1301.1,507z"/>
		<path class="st10" d="M1081.4,367.6c0.8-1.3,2-2.7,3.5-4C1084.1,364.9,1082.9,366.2,1081.4,367.6z"/>
		<path class="st10" d="M1301.1,520c-0.2-2.3-0.4-5.1-0.3-8.2C1301.1,514.2,1301.2,516.9,1301.1,520z"/>
		<path class="st4" d="M922.2,416.2c-0.9-0.9-1.7-2.1-2.3-3.5C920.9,413.6,921.6,414.7,922.2,416.2z"/>
		<path class="st12" d="M1569.1,396c-1.2-0.4-2.3-1.2-3.6-2.2C1566.6,394.3,1567.9,395,1569.1,396z"/>
		<path class="st4" d="M882.2,422.9c0.8,0.2,1.8,0.6,2.9,1.4C884.2,424.2,883.3,423.7,882.2,422.9z"/>
		<path class="st11" d="M1203.2,428.8c0.6,0.5,1.2,1.2,1.9,2.4C1204.6,430.7,1203.9,429.9,1203.2,428.8z"/>
		<path class="st2" d="M864.2,601.1c-0.6-0.5-1.3-1.2-2-2.4C862.9,599.2,863.5,600,864.2,601.1z"/>
		<path class="st4" d="M889.1,428.9c0.6,0.5,1.3,1.3,2,2.4C890.4,430.8,889.8,430,889.1,428.9z"/>
		<path class="st11" d="M1196.3,422.8c0.8,0.2,1.8,0.7,2.8,1.4C1198.3,424,1197.4,423.5,1196.3,422.8z"/>
		<path class="st2" d="M862.2,598.2c-0.6-0.2-1.2-0.8-1.8-1.6C861,596.8,861.6,597.3,862.2,598.2z"/>
		<path class="st10" d="M1084.5,341c-0.4-0.1-0.8-0.5-1.3-1.3C1083.6,339.8,1084.1,340.3,1084.5,341z"/>
		<path class="st7" d="M1085.1,396.2c-0.3-0.2-0.6-0.7-0.8-1.6C1084.6,394.9,1084.9,395.4,1085.1,396.2z"/>
		<path class="st11" d="M1194.3,421.7c0.4,0,1,0.1,1.7,0.6C1195.6,422.4,1195.1,422.1,1194.3,421.7z"/>
		<path class="st4" d="M880.2,421.9c0.4-0.1,1,0.1,1.7,0.6C881.5,422.5,881,422.3,880.2,421.9z"/>
		<path class="st11" d="M1199.3,424.8c0.4-0.1,1,0.1,1.7,0.7C1200.6,425.5,1200,425.3,1199.3,424.8z"/>
		<path class="st2" d="M860.5,596c-0.4-0.1-0.8-0.5-1.2-1.2C859.6,594.9,860,595.3,860.5,596z"/>
		<path class="st4" d="M895.5,445.6c0.4-0.3,0.8-0.4,1.2-0.5c-0.1,0.4-0.1,0.7-0.5,1.3C895.6,446.4,895.5,446.2,895.5,445.6z"/>
		<path class="st11" d="M1201.9,426.9c0.4,0.1,0.8,0.6,1.2,1.4C1202.7,428.1,1202.3,427.7,1201.9,426.9z"/>
		<path class="st12" d="M1538.9,393.6c0.2,0,0,0.4,0,0.4s-0.4,0-0.5-0.2C1538.3,393.7,1538.7,393.6,1538.9,393.6z"/>
		<path class="st11" d="M1201,425.9c0.4-0.2,0.7,0,1.1,0.5C1201.7,426.5,1201.3,426.4,1201,425.9z"/>
	</g>
</g>
</svg>
